<svg width="108" height="20" fill="none" xmlns="http://www.w3.org/2000/svg"><path d="M68.293.372c-1.557.488-2.563 1.144-3.778 2.38-1.233 1.294-1.955 2.68-2.353 4.48-.797 3.71.19 7.29 2.638 9.613 2.069 1.968 3.777 2.55 7.118 2.437 1.993-.075 2.334-.131 3.492-.656 1.443-.675 3.151-2.174 3.872-3.392.475-.787 1.196-2.811 1.196-3.336 0-.206-.417-.262-2.03-.262h-2.05l-.361.88c-.836 2.006-2.354 2.943-4.765 2.943-1.689 0-2.391-.263-3.473-1.275-.873-.806-1.329-1.724-1.594-3.28-.513-2.923.626-5.528 2.885-6.69.854-.45 3.397-.468 4.384-.037a4.825 4.825 0 0 1 2.468 2.492l.455 1.031h2.384c.993.003 1.457.004 1.607-.21.13-.187.02-.54-.19-1.202a69.19 69.19 0 0 1-.08-.256c-.494-1.555-1.14-2.567-2.335-3.71C75.942.615 74.253.015 71.273.034c-1.291 0-2.24.113-2.98.337z" fill="#1A1A1A"/><path fill-rule="evenodd" clip-rule="evenodd" d="M3.075.597C1.006 1.61 0 3.277 0 5.732c0 1.762.475 2.999 1.594 4.086 1.063 1.068 2.088 1.499 3.74 1.593 2.068.112 3.188-.281 4.555-1.63 1.234-1.219 1.69-2.325 1.69-4.049 0-1.574-.437-2.717-1.481-3.86C8.864.504 7.725.016 5.77.016c-1.329 0-1.69.075-2.695.581zm4.384 3.73c.589.656.684 1.574.228 2.436-.398.768-1.006 1.124-1.917 1.124-1.537 0-2.657-1.536-2.107-2.848.722-1.668 2.582-2.024 3.796-.712zm7.536 14.842V.166l4.802.075c4.327.075 4.897.131 5.922.506 3.967 1.425 6.415 4.817 6.415 8.92 0 4.161-2.467 7.534-6.51 8.921-1.12.394-1.651.431-5.922.506l-4.707.075zM27.712 7.606c-.57-1.518-2.031-2.942-3.436-3.354-.645-.188-1.746-.3-3.056-.3h-2.05v11.47l2.43-.076c2.164-.056 2.505-.112 3.378-.562 2.563-1.312 3.759-4.46 2.734-7.178zM39.119.616c-.816 2.249-6.282 18.141-6.282 18.31 0 .15.569.206 2.125.168l2.107-.056.665-1.93.645-1.912h7.858l1.29 3.936h2.145c1.177 0 2.145-.038 2.145-.075 0-.094-6.15-18.01-6.358-18.535-.114-.28-.456-.318-3.151-.318-2.961 0-3.037 0-3.189.412zm4.688 7.215l1.33 3.992h-2.848c-2.202 0-2.828-.056-2.752-.244l1.385-4.104c.722-2.136 1.348-3.823 1.424-3.748.076.075.721 1.93 1.461 4.104z" fill="#1A1A1A"/><path d="M54.664 19.132V.204h3.986v18.928h-3.986zm28.85 0h4.177V11.26h8.161v7.87h4.176V.205h-4.176v7.683h-8.161V.204h-4.176v18.928zm20.5 0V.204H108v18.928h-3.986z" fill="#1A1A1A"/></svg>